<mxfile host="app.diagrams.net" modified="2024-07-18T12:03:58.028Z" agent="Mozilla/5.0 (Windows NT 10.0; Win64; x64) AppleWebKit/537.36 (KHTML, like Gecko) Chrome/126.0.0.0 Safari/537.36" etag="kWJ26q74QInoSbQIz6GY" version="24.7.1" type="device">
  <diagram name="Sayfa -1" id="ztZ4ViXBI-BH8ijJAcW5">
    <mxGraphModel dx="924" dy="745" grid="1" gridSize="10" guides="1" tooltips="1" connect="1" arrows="1" fold="1" page="1" pageScale="1" pageWidth="1169" pageHeight="1654" math="0" shadow="0">
      <root>
        <mxCell id="0" />
        <mxCell id="1" parent="0" />
        <mxCell id="OdmQpn4UZfxYILN34tI3-1" value="Airlines" style="swimlane;fontStyle=1;align=center;verticalAlign=top;childLayout=stackLayout;horizontal=1;startSize=26;horizontalStack=0;resizeParent=1;resizeParentMax=0;resizeLast=0;collapsible=1;marginBottom=0;whiteSpace=wrap;html=1;fillColor=#dae8fc;strokeColor=#6c8ebf;" vertex="1" parent="1">
          <mxGeometry x="520" y="40" width="160" height="270" as="geometry" />
        </mxCell>
        <mxCell id="OdmQpn4UZfxYILN34tI3-2" value="&lt;div&gt;+ id: string&lt;/div&gt;&lt;div&gt;+ name: string&lt;/div&gt;&lt;div&gt;+ aircraftList: string&lt;/div&gt;&lt;div&gt;+ pilotList: string&lt;/div&gt;&lt;div&gt;+ copilotList: string&lt;/div&gt;&lt;div&gt;+ flightList: string&lt;/div&gt;" style="text;strokeColor=none;fillColor=none;align=left;verticalAlign=top;spacingLeft=4;spacingRight=4;overflow=hidden;rotatable=0;points=[[0,0.5],[1,0.5]];portConstraint=eastwest;whiteSpace=wrap;html=1;" vertex="1" parent="OdmQpn4UZfxYILN34tI3-1">
          <mxGeometry y="26" width="160" height="114" as="geometry" />
        </mxCell>
        <mxCell id="OdmQpn4UZfxYILN34tI3-3" value="" style="line;strokeWidth=1;fillColor=none;align=left;verticalAlign=middle;spacingTop=-1;spacingLeft=3;spacingRight=3;rotatable=0;labelPosition=right;points=[];portConstraint=eastwest;strokeColor=inherit;" vertex="1" parent="OdmQpn4UZfxYILN34tI3-1">
          <mxGeometry y="140" width="160" height="8" as="geometry" />
        </mxCell>
        <mxCell id="OdmQpn4UZfxYILN34tI3-4" value="&lt;div&gt;+ addAircraft(): string&lt;/div&gt;&lt;div&gt;+ addPilot(): string&lt;/div&gt;&lt;div&gt;+ addCopilot(): string&lt;/div&gt;&lt;div&gt;+ removeAircraft(): string&lt;/div&gt;&lt;div&gt;+ removePilot(): string&lt;/div&gt;&lt;div&gt;+ removeCopilot(): string&lt;/div&gt;&lt;div&gt;&lt;br&gt;&lt;/div&gt;&lt;div&gt;&lt;br&gt;&lt;/div&gt;" style="text;strokeColor=none;fillColor=none;align=left;verticalAlign=top;spacingLeft=4;spacingRight=4;overflow=hidden;rotatable=0;points=[[0,0.5],[1,0.5]];portConstraint=eastwest;whiteSpace=wrap;html=1;" vertex="1" parent="OdmQpn4UZfxYILN34tI3-1">
          <mxGeometry y="148" width="160" height="122" as="geometry" />
        </mxCell>
        <mxCell id="OdmQpn4UZfxYILN34tI3-5" value="Flights" style="swimlane;fontStyle=1;align=center;verticalAlign=top;childLayout=stackLayout;horizontal=1;startSize=26;horizontalStack=0;resizeParent=1;resizeParentMax=0;resizeLast=0;collapsible=1;marginBottom=0;whiteSpace=wrap;html=1;fillColor=#dae8fc;strokeColor=#6c8ebf;" vertex="1" parent="1">
          <mxGeometry x="680" y="440" width="160" height="200" as="geometry" />
        </mxCell>
        <mxCell id="OdmQpn4UZfxYILN34tI3-6" value="&lt;div&gt;+ name: string&lt;/div&gt;&lt;div&gt;+ id: string&lt;/div&gt;&lt;div&gt;+ departureAirport: string&lt;/div&gt;&lt;div&gt;+ arrivalAirport: string&lt;/div&gt;&lt;div&gt;+ departureTime: date&lt;/div&gt;&lt;div&gt;+ arrivalTime: date&lt;/div&gt;&lt;div&gt;+ pilot: string&lt;/div&gt;&lt;div&gt;+ copilot: sting&lt;/div&gt;&lt;div&gt;&lt;br&gt;&lt;/div&gt;" style="text;strokeColor=none;fillColor=none;align=left;verticalAlign=top;spacingLeft=4;spacingRight=4;overflow=hidden;rotatable=0;points=[[0,0.5],[1,0.5]];portConstraint=eastwest;whiteSpace=wrap;html=1;" vertex="1" parent="OdmQpn4UZfxYILN34tI3-5">
          <mxGeometry y="26" width="160" height="134" as="geometry" />
        </mxCell>
        <mxCell id="OdmQpn4UZfxYILN34tI3-7" value="" style="line;strokeWidth=1;fillColor=none;align=left;verticalAlign=middle;spacingTop=-1;spacingLeft=3;spacingRight=3;rotatable=0;labelPosition=right;points=[];portConstraint=eastwest;strokeColor=inherit;" vertex="1" parent="OdmQpn4UZfxYILN34tI3-5">
          <mxGeometry y="160" width="160" height="8" as="geometry" />
        </mxCell>
        <mxCell id="OdmQpn4UZfxYILN34tI3-8" value="&lt;div&gt;&lt;br&gt;&lt;/div&gt;&lt;div&gt;&lt;br&gt;&lt;/div&gt;" style="text;strokeColor=none;fillColor=none;align=left;verticalAlign=top;spacingLeft=4;spacingRight=4;overflow=hidden;rotatable=0;points=[[0,0.5],[1,0.5]];portConstraint=eastwest;whiteSpace=wrap;html=1;" vertex="1" parent="OdmQpn4UZfxYILN34tI3-5">
          <mxGeometry y="168" width="160" height="32" as="geometry" />
        </mxCell>
        <mxCell id="OdmQpn4UZfxYILN34tI3-9" value="Airport" style="swimlane;fontStyle=1;align=center;verticalAlign=top;childLayout=stackLayout;horizontal=1;startSize=26;horizontalStack=0;resizeParent=1;resizeParentMax=0;resizeLast=0;collapsible=1;marginBottom=0;whiteSpace=wrap;html=1;fillColor=#dae8fc;strokeColor=#6c8ebf;" vertex="1" parent="1">
          <mxGeometry x="120" y="440" width="160" height="150" as="geometry" />
        </mxCell>
        <mxCell id="OdmQpn4UZfxYILN34tI3-10" value="&lt;div&gt;+ id: string&lt;/div&gt;&lt;div&gt;+ airportName: string&lt;/div&gt;&lt;div&gt;+ location: string&lt;/div&gt;" style="text;strokeColor=none;fillColor=none;align=left;verticalAlign=top;spacingLeft=4;spacingRight=4;overflow=hidden;rotatable=0;points=[[0,0.5],[1,0.5]];portConstraint=eastwest;whiteSpace=wrap;html=1;" vertex="1" parent="OdmQpn4UZfxYILN34tI3-9">
          <mxGeometry y="26" width="160" height="64" as="geometry" />
        </mxCell>
        <mxCell id="OdmQpn4UZfxYILN34tI3-11" value="" style="line;strokeWidth=1;fillColor=none;align=left;verticalAlign=middle;spacingTop=-1;spacingLeft=3;spacingRight=3;rotatable=0;labelPosition=right;points=[];portConstraint=eastwest;strokeColor=inherit;" vertex="1" parent="OdmQpn4UZfxYILN34tI3-9">
          <mxGeometry y="90" width="160" height="8" as="geometry" />
        </mxCell>
        <mxCell id="OdmQpn4UZfxYILN34tI3-12" value="&lt;div&gt;&lt;br&gt;&lt;/div&gt;&lt;div&gt;&lt;br&gt;&lt;/div&gt;" style="text;strokeColor=none;fillColor=none;align=left;verticalAlign=top;spacingLeft=4;spacingRight=4;overflow=hidden;rotatable=0;points=[[0,0.5],[1,0.5]];portConstraint=eastwest;whiteSpace=wrap;html=1;" vertex="1" parent="OdmQpn4UZfxYILN34tI3-9">
          <mxGeometry y="98" width="160" height="52" as="geometry" />
        </mxCell>
        <mxCell id="OdmQpn4UZfxYILN34tI3-13" value="Aircrafts" style="swimlane;fontStyle=1;align=center;verticalAlign=top;childLayout=stackLayout;horizontal=1;startSize=26;horizontalStack=0;resizeParent=1;resizeParentMax=0;resizeLast=0;collapsible=1;marginBottom=0;whiteSpace=wrap;html=1;fillColor=#dae8fc;strokeColor=#6c8ebf;" vertex="1" parent="1">
          <mxGeometry x="960" y="440" width="190" height="310" as="geometry" />
        </mxCell>
        <mxCell id="OdmQpn4UZfxYILN34tI3-14" value="&lt;div&gt;+ id: string&lt;/div&gt;&lt;div&gt;+ name: string&lt;/div&gt;&lt;div&gt;+ aircraftType: string&lt;/div&gt;&lt;div&gt;+ tailNumber: string&lt;/div&gt;&lt;div&gt;+ flightList: string&lt;/div&gt;&lt;div&gt;+ status: string&lt;/div&gt;&lt;div&gt;+ capacity: int&lt;/div&gt;" style="text;strokeColor=none;fillColor=none;align=left;verticalAlign=top;spacingLeft=4;spacingRight=4;overflow=hidden;rotatable=0;points=[[0,0.5],[1,0.5]];portConstraint=eastwest;whiteSpace=wrap;html=1;" vertex="1" parent="OdmQpn4UZfxYILN34tI3-13">
          <mxGeometry y="26" width="190" height="124" as="geometry" />
        </mxCell>
        <mxCell id="OdmQpn4UZfxYILN34tI3-15" value="" style="line;strokeWidth=1;fillColor=none;align=left;verticalAlign=middle;spacingTop=-1;spacingLeft=3;spacingRight=3;rotatable=0;labelPosition=right;points=[];portConstraint=eastwest;strokeColor=inherit;" vertex="1" parent="OdmQpn4UZfxYILN34tI3-13">
          <mxGeometry y="150" width="190" height="8" as="geometry" />
        </mxCell>
        <mxCell id="OdmQpn4UZfxYILN34tI3-16" value="+ getMaintenance(): boolean&lt;div&gt;+ getFlightLine(): string&lt;/div&gt;&lt;div&gt;+ cancelFlight(): string&lt;/div&gt;&lt;div&gt;+ scheduleFlight(): string&lt;/div&gt;&lt;div&gt;+ assignPilot(): string&lt;/div&gt;&lt;div&gt;+ assignCopilot(): string&lt;/div&gt;&lt;div&gt;+ getRequiredPilotCount(): int&lt;/div&gt;&lt;div&gt;+&amp;nbsp;&lt;span style=&quot;background-color: initial;&quot;&gt;getRequiredCopilotCount(): int&lt;/span&gt;&lt;/div&gt;" style="text;strokeColor=none;fillColor=none;align=left;verticalAlign=top;spacingLeft=4;spacingRight=4;overflow=hidden;rotatable=0;points=[[0,0.5],[1,0.5]];portConstraint=eastwest;whiteSpace=wrap;html=1;" vertex="1" parent="OdmQpn4UZfxYILN34tI3-13">
          <mxGeometry y="158" width="190" height="152" as="geometry" />
        </mxCell>
        <mxCell id="OdmQpn4UZfxYILN34tI3-17" value="Pilots" style="swimlane;fontStyle=1;align=center;verticalAlign=top;childLayout=stackLayout;horizontal=1;startSize=26;horizontalStack=0;resizeParent=1;resizeParentMax=0;resizeLast=0;collapsible=1;marginBottom=0;whiteSpace=wrap;html=1;fillColor=#dae8fc;strokeColor=#6c8ebf;" vertex="1" parent="1">
          <mxGeometry x="400" y="440" width="170" height="180" as="geometry" />
        </mxCell>
        <mxCell id="OdmQpn4UZfxYILN34tI3-18" value="&lt;div&gt;+ pilotID: string&lt;/div&gt;&lt;div&gt;+ pilotName: string&lt;/div&gt;&lt;div&gt;+ assignedAircraft: string&lt;/div&gt;&lt;div&gt;+ experienceLevel: int&lt;/div&gt;&lt;div&gt;+ company: string&lt;/div&gt;" style="text;strokeColor=none;fillColor=none;align=left;verticalAlign=top;spacingLeft=4;spacingRight=4;overflow=hidden;rotatable=0;points=[[0,0.5],[1,0.5]];portConstraint=eastwest;whiteSpace=wrap;html=1;" vertex="1" parent="OdmQpn4UZfxYILN34tI3-17">
          <mxGeometry y="26" width="170" height="94" as="geometry" />
        </mxCell>
        <mxCell id="OdmQpn4UZfxYILN34tI3-19" value="" style="line;strokeWidth=1;fillColor=none;align=left;verticalAlign=middle;spacingTop=-1;spacingLeft=3;spacingRight=3;rotatable=0;labelPosition=right;points=[];portConstraint=eastwest;strokeColor=inherit;" vertex="1" parent="OdmQpn4UZfxYILN34tI3-17">
          <mxGeometry y="120" width="170" height="8" as="geometry" />
        </mxCell>
        <mxCell id="OdmQpn4UZfxYILN34tI3-20" value="&lt;div&gt;+ assignAircraft(): string&lt;/div&gt;&lt;div&gt;+ unassignAircraft(): string&lt;/div&gt;" style="text;strokeColor=none;fillColor=none;align=left;verticalAlign=top;spacingLeft=4;spacingRight=4;overflow=hidden;rotatable=0;points=[[0,0.5],[1,0.5]];portConstraint=eastwest;whiteSpace=wrap;html=1;" vertex="1" parent="OdmQpn4UZfxYILN34tI3-17">
          <mxGeometry y="128" width="170" height="52" as="geometry" />
        </mxCell>
        <mxCell id="OdmQpn4UZfxYILN34tI3-21" value="Pilots" style="swimlane;fontStyle=1;align=center;verticalAlign=top;childLayout=stackLayout;horizontal=1;startSize=26;horizontalStack=0;resizeParent=1;resizeParentMax=0;resizeLast=0;collapsible=1;marginBottom=0;whiteSpace=wrap;html=1;fillColor=#dae8fc;strokeColor=#6c8ebf;" vertex="1" parent="1">
          <mxGeometry x="240" y="680" width="160" height="150" as="geometry" />
        </mxCell>
        <mxCell id="OdmQpn4UZfxYILN34tI3-22" value="&lt;div&gt;+ id: string&lt;/div&gt;&lt;div&gt;+ name:string&lt;/div&gt;&lt;div&gt;+ experienceLevel: int&lt;/div&gt;" style="text;strokeColor=none;fillColor=none;align=left;verticalAlign=top;spacingLeft=4;spacingRight=4;overflow=hidden;rotatable=0;points=[[0,0.5],[1,0.5]];portConstraint=eastwest;whiteSpace=wrap;html=1;" vertex="1" parent="OdmQpn4UZfxYILN34tI3-21">
          <mxGeometry y="26" width="160" height="64" as="geometry" />
        </mxCell>
        <mxCell id="OdmQpn4UZfxYILN34tI3-23" value="" style="line;strokeWidth=1;fillColor=none;align=left;verticalAlign=middle;spacingTop=-1;spacingLeft=3;spacingRight=3;rotatable=0;labelPosition=right;points=[];portConstraint=eastwest;strokeColor=inherit;" vertex="1" parent="OdmQpn4UZfxYILN34tI3-21">
          <mxGeometry y="90" width="160" height="8" as="geometry" />
        </mxCell>
        <mxCell id="OdmQpn4UZfxYILN34tI3-24" value="&lt;div&gt;&lt;br&gt;&lt;/div&gt;&lt;div&gt;&lt;br&gt;&lt;/div&gt;" style="text;strokeColor=none;fillColor=none;align=left;verticalAlign=top;spacingLeft=4;spacingRight=4;overflow=hidden;rotatable=0;points=[[0,0.5],[1,0.5]];portConstraint=eastwest;whiteSpace=wrap;html=1;" vertex="1" parent="OdmQpn4UZfxYILN34tI3-21">
          <mxGeometry y="98" width="160" height="52" as="geometry" />
        </mxCell>
        <mxCell id="OdmQpn4UZfxYILN34tI3-25" value="Co-Pilots" style="swimlane;fontStyle=1;align=center;verticalAlign=top;childLayout=stackLayout;horizontal=1;startSize=26;horizontalStack=0;resizeParent=1;resizeParentMax=0;resizeLast=0;collapsible=1;marginBottom=0;whiteSpace=wrap;html=1;fillColor=#dae8fc;strokeColor=#6c8ebf;" vertex="1" parent="1">
          <mxGeometry x="560" y="680" width="160" height="150" as="geometry" />
        </mxCell>
        <mxCell id="OdmQpn4UZfxYILN34tI3-26" value="&lt;div&gt;+ id: string&lt;/div&gt;&lt;div&gt;+ name: string&lt;/div&gt;&lt;div&gt;+ experienceLevel: int&lt;br&gt;&lt;/div&gt;&lt;div&gt;&lt;br&gt;&lt;/div&gt;" style="text;strokeColor=none;fillColor=none;align=left;verticalAlign=top;spacingLeft=4;spacingRight=4;overflow=hidden;rotatable=0;points=[[0,0.5],[1,0.5]];portConstraint=eastwest;whiteSpace=wrap;html=1;" vertex="1" parent="OdmQpn4UZfxYILN34tI3-25">
          <mxGeometry y="26" width="160" height="64" as="geometry" />
        </mxCell>
        <mxCell id="OdmQpn4UZfxYILN34tI3-27" value="" style="line;strokeWidth=1;fillColor=none;align=left;verticalAlign=middle;spacingTop=-1;spacingLeft=3;spacingRight=3;rotatable=0;labelPosition=right;points=[];portConstraint=eastwest;strokeColor=inherit;" vertex="1" parent="OdmQpn4UZfxYILN34tI3-25">
          <mxGeometry y="90" width="160" height="8" as="geometry" />
        </mxCell>
        <mxCell id="OdmQpn4UZfxYILN34tI3-28" value="&lt;div&gt;&lt;br&gt;&lt;/div&gt;&lt;div&gt;&lt;br&gt;&lt;/div&gt;" style="text;strokeColor=none;fillColor=none;align=left;verticalAlign=top;spacingLeft=4;spacingRight=4;overflow=hidden;rotatable=0;points=[[0,0.5],[1,0.5]];portConstraint=eastwest;whiteSpace=wrap;html=1;" vertex="1" parent="OdmQpn4UZfxYILN34tI3-25">
          <mxGeometry y="98" width="160" height="52" as="geometry" />
        </mxCell>
        <mxCell id="OdmQpn4UZfxYILN34tI3-30" value="" style="endArrow=none;html=1;edgeStyle=orthogonalEdgeStyle;rounded=0;entryX=0.556;entryY=0.007;entryDx=0;entryDy=0;exitX=0.5;exitY=0;exitDx=0;exitDy=0;entryPerimeter=0;" edge="1" parent="1" source="OdmQpn4UZfxYILN34tI3-21" target="OdmQpn4UZfxYILN34tI3-25">
          <mxGeometry relative="1" as="geometry">
            <mxPoint x="80" y="934" as="sourcePoint" />
            <mxPoint x="80" y="614" as="targetPoint" />
            <Array as="points">
              <mxPoint x="320" y="670" />
              <mxPoint x="649" y="670" />
            </Array>
          </mxGeometry>
        </mxCell>
        <mxCell id="OdmQpn4UZfxYILN34tI3-31" value="" style="endArrow=classic;endSize=16;endFill=1;html=1;rounded=0;startFill=1;" edge="1" parent="1">
          <mxGeometry width="160" relative="1" as="geometry">
            <mxPoint x="480" y="670" as="sourcePoint" />
            <mxPoint x="479.5" y="620" as="targetPoint" />
          </mxGeometry>
        </mxCell>
        <mxCell id="OdmQpn4UZfxYILN34tI3-32" value="" style="endArrow=none;html=1;edgeStyle=orthogonalEdgeStyle;rounded=0;entryX=0.5;entryY=0;entryDx=0;entryDy=0;exitX=0.5;exitY=0;exitDx=0;exitDy=0;" edge="1" parent="1" target="OdmQpn4UZfxYILN34tI3-5">
          <mxGeometry relative="1" as="geometry">
            <mxPoint x="150" y="440" as="sourcePoint" />
            <mxPoint x="870" y="430" as="targetPoint" />
            <Array as="points">
              <mxPoint x="150" y="380" />
              <mxPoint x="760" y="380" />
            </Array>
          </mxGeometry>
        </mxCell>
        <mxCell id="OdmQpn4UZfxYILN34tI3-33" value="" style="endArrow=none;html=1;edgeStyle=orthogonalEdgeStyle;rounded=0;entryX=0.5;entryY=0;entryDx=0;entryDy=0;exitX=0.5;exitY=0;exitDx=0;exitDy=0;" edge="1" parent="1" target="OdmQpn4UZfxYILN34tI3-13">
          <mxGeometry relative="1" as="geometry">
            <mxPoint x="480" y="440" as="sourcePoint" />
            <mxPoint x="1090" y="440" as="targetPoint" />
            <Array as="points">
              <mxPoint x="480" y="380" />
              <mxPoint x="1055" y="380" />
            </Array>
          </mxGeometry>
        </mxCell>
        <mxCell id="OdmQpn4UZfxYILN34tI3-34" value="" style="endArrow=classic;endSize=16;endFill=1;html=1;rounded=0;startFill=1;entryX=0.5;entryY=1.033;entryDx=0;entryDy=0;entryPerimeter=0;" edge="1" parent="1" target="OdmQpn4UZfxYILN34tI3-4">
          <mxGeometry width="160" relative="1" as="geometry">
            <mxPoint x="600" y="380" as="sourcePoint" />
            <mxPoint x="489.5" y="630" as="targetPoint" />
          </mxGeometry>
        </mxCell>
      </root>
    </mxGraphModel>
  </diagram>
</mxfile>
